<svg width="42" height="42" viewBox="0 0 42 42" fill="none" xmlns="http://www.w3.org/2000/svg">
<path d="M39.0496 18.3972H23.5603V2.9078C23.5603 2.22312 23.2883 1.56649 22.8041 1.08236C22.32 0.598219 21.6634 0.326233 20.9787 0.326233C20.294 0.326233 19.6374 0.598219 19.1532 1.08236C18.6691 1.56649 18.3971 2.22312 18.3971 2.9078V18.3972H2.90774C2.22306 18.3972 1.56643 18.6692 1.0823 19.1533C0.598158 19.6374 0.326172 20.2941 0.326172 20.9788C0.326172 21.6634 0.598158 22.3201 1.0823 22.8042C1.56643 23.2883 2.22306 23.5603 2.90774 23.5603H18.3971V39.0497C18.3971 39.7344 18.6691 40.391 19.1532 40.8751C19.6374 41.3593 20.294 41.6313 20.9787 41.6313C21.6634 41.6313 22.32 41.3593 22.8041 40.8751C23.2883 40.391 23.5603 39.7344 23.5603 39.0497V23.5603H39.0496C39.7343 23.5603 40.3909 23.2883 40.8751 22.8042C41.3592 22.3201 41.6312 21.6634 41.6312 20.9788C41.6312 20.2941 41.3592 19.6374 40.8751 19.1533C40.3909 18.6692 39.7343 18.3972 39.0496 18.3972Z" fill="white"/>
</svg>
